<svg width="110" height="132" viewBox="0 0 110 132" fill="none" xmlns="http://www.w3.org/2000/svg">
<path fill-rule="evenodd" clip-rule="evenodd" d="M51.4215 3.59586C51.7905 5.55986 52.3385 7.80986 52.6405 8.59586C53.4065 10.5939 46.6395 10.5309 44.9745 8.52486C43.1145 6.28386 41.9075 6.71486 42.8715 9.27486C43.3455 10.5339 43.3255 12.5799 42.8255 13.9199C41.7045 16.9239 42.7145 18.1009 44.4165 15.7729C46.0545 13.5329 53.4885 13.2439 52.6405 15.4539C52.3385 16.2399 51.7905 18.4899 51.4215 20.4539C50.4255 25.7639 52.8895 25.0649 56.2495 19.0829C58.7095 14.7009 59.4445 14.1079 62.7495 13.8339C67.6325 13.4289 67.9295 10.6649 63.1395 10.2049C60.3685 9.93986 59.2875 9.05286 56.7405 4.95486C53.0075 -1.05014 50.4265 -1.71014 51.4215 3.59586ZM34.1194 12.0949C32.5464 12.7249 31.9654 13.5599 32.3694 14.6129C32.7024 15.4799 32.9745 16.6019 32.9745 17.1069C32.9745 18.2679 36.0325 18.2739 37.8595 17.1169C38.7765 16.5359 39.0235 15.3579 38.5905 13.6319C37.8775 10.7899 37.6084 10.6969 34.1194 12.0949ZM70.8915 13.7429C69.7515 16.7409 69.7095 16.6689 73.1325 17.5279C75.2655 18.0639 75.9155 17.7879 76.4445 16.1189C77.2585 13.5549 76.6135 12.4249 73.9355 11.7249C72.3735 11.3169 71.6255 11.8129 70.8915 13.7429ZM82.0765 18.7009C81.4295 20.1209 81.0285 21.3889 81.1875 21.5189C82.1955 22.3439 86.1945 24.1289 86.4245 23.8559C86.5785 23.6739 87.2225 22.5279 87.8555 21.3089C88.8765 19.3459 88.6795 18.9239 86.1305 17.6059C83.3695 16.1779 83.2055 16.2219 82.0765 18.7009ZM22.5395 18.3539C21.0325 19.4559 20.9205 20.0549 21.8835 21.8539C23.2275 24.3669 23.3795 24.4029 26.2905 22.8899C29.3155 21.3169 29.2625 21.4319 28.0205 19.1109C26.7305 16.6999 25.1075 16.4759 22.5395 18.3539ZM13.1565 26.3309L10.9435 28.6869L12.9945 30.5429C14.9975 32.3559 15.0955 32.3479 17.2325 30.2119L19.4185 28.0249L17.3945 25.9999L15.3695 23.9759L13.1565 26.3309ZM91.4425 26.0599C89.6495 28.0419 89.6565 28.1509 91.7045 30.1989C95.4015 33.8959 99.9435 29.8579 96.4405 25.9879C94.2185 23.5319 93.7235 23.5399 91.4425 26.0599ZM44.9745 26.9029C18.4255 35.6129 11.0175 68.5339 31.4985 86.7889C38.3275 92.8749 45.2475 95.4979 54.4745 95.4979C64.7145 95.4979 71.0575 92.8709 78.5475 85.5249C86.3315 77.8919 88.9745 71.4519 88.9745 60.1219C88.9745 53.1489 88.5855 51.5159 85.4145 45.1769C81.6325 37.6169 77.0385 33.0869 68.9745 28.9659C65.5395 27.2109 62.4625 26.5979 55.9745 26.3749C51.2995 26.2139 46.3495 26.4519 44.9745 26.9029ZM60.1744 31.2249C58.4024 32.9969 58.7025 33.8469 61.2245 34.2049C63.2435 34.4919 63.4485 35.0189 63.2255 39.3419C62.9975 43.7539 63.1445 44.1059 64.9755 43.5249C67.8285 42.6189 67.4665 43.7379 63.4745 48.1569C59.9055 52.1069 58.9345 56.2339 61.2245 57.7159C61.9125 58.1609 64.2745 58.9749 66.4745 59.5249C70.2895 60.4789 70.5855 60.8429 72.8895 67.4089C75.6235 75.2019 75.4555 75.2459 81.1615 65.2749C85.8615 57.0609 87.1105 58.2419 84.4655 68.3979C77.2445 96.1199 40.3475 100.478 27.2395 75.1569C24.3535 69.5819 23.9745 67.9249 23.9745 60.8789C23.9745 52.8759 24.8875 51.5489 27.0735 56.3719C27.6105 57.5559 29.1505 60.3249 30.4955 62.5249C31.8405 64.7249 32.9495 67.4529 32.9585 68.5879C32.9675 69.7229 34.3655 71.9729 36.0665 73.5879C39.6085 76.9529 42.9745 82.9939 42.9745 85.9849C42.9745 89.2089 45.6575 88.3579 46.3465 84.9169C46.6885 83.2069 48.9945 79.1129 51.4715 75.8179C53.9475 72.5229 55.9745 69.2559 55.9745 68.5589C55.9745 66.6079 48.1115 61.8529 43.9655 61.2969C41.9285 61.0239 39.2915 61.3199 38.1035 61.9559C36.2985 62.9219 35.8375 62.8169 35.2895 61.3179C34.9285 60.3319 33.8105 58.4519 32.8045 57.1399C30.5665 54.2229 30.4015 51.8679 32.4915 52.6699C33.4175 53.0249 34.8175 52.2229 36.0885 50.6069C37.2335 49.1519 40.6165 46.3959 43.6075 44.4829C46.5985 42.5699 49.3125 40.3079 49.6385 39.4569C49.9655 38.6059 49.5355 36.1359 48.6845 33.9669L47.1355 30.0249H54.2545C59.7925 30.0249 61.1074 30.2919 60.1744 31.2249ZM38.2825 108.255C36.5265 108.819 34.8335 109.95 34.5205 110.767C34.0555 111.978 34.6034 112.13 37.4944 111.587C40.8064 110.966 41.0055 111.073 40.5345 113.224C40.2575 114.489 39.9055 118.9 39.7525 123.025C39.5255 129.149 39.7495 130.525 40.9745 130.525C41.9755 130.525 42.5565 129.36 42.7205 127.025C43.7955 111.761 43.9445 111.19 47.0475 110.509C48.6575 110.155 49.9745 109.227 49.9745 108.446C49.9745 106.756 43.2865 106.647 38.2825 108.255ZM107.293 108.259C105.889 110.429 106.1 131.025 107.526 131.025C109.499 131.025 109.974 128.499 109.974 118.002C109.974 108.629 109.103 105.461 107.293 108.259ZM17.9745 115.952C17.9745 122.659 16.8495 123.618 14.4415 118.961C12.5035 115.214 11.0815 115.543 8.47445 120.34C7.37445 122.363 6.02445 123.872 5.47445 123.693C4.92445 123.514 4.33946 120.815 4.17446 117.696C3.96646 113.765 3.46245 112.025 2.53145 112.025C-0.388546 112.025 -0.886544 118.833 1.58346 125.005C3.74546 130.41 6.26546 130.335 9.09846 124.781C11.0505 120.955 11.3735 120.721 12.3695 122.4C12.9775 123.424 14.2625 125.221 15.2245 126.394L16.9745 128.525L18.9745 126.164C20.0745 124.866 21.0215 122.841 21.0795 121.664C21.1465 120.29 21.6205 120.936 22.4055 123.474C24.0595 128.824 27.6515 131.479 31.3395 130.076C34.6085 128.834 34.0655 127.094 30.6155 127.753C26.7475 128.493 26.6645 126.38 30.4685 124.029C34.4675 121.557 34.8285 119.879 31.9745 117.025C29.3605 114.411 25.4755 114.472 23.5955 117.156C22.1645 119.199 22.0895 119.105 21.7885 114.915C21.5575 111.699 21.0115 110.454 19.7245 110.21C18.2135 109.924 17.9745 110.708 17.9745 115.952ZM86.9495 113.59C86.4135 115.001 85.9745 116.715 85.9745 117.399C85.9745 118.083 85.3285 119.516 84.5395 120.584C83.1715 122.435 83.0325 122.353 81.5545 118.843C79.7715 114.608 78.8915 113.84 77.0925 114.952C76.1005 115.565 76.5065 117.136 78.8675 121.813C80.5515 125.15 82.3595 128.145 82.8835 128.469C84.2275 129.299 86.6644 125.494 88.5854 119.57C89.4844 116.795 90.6155 114.097 91.0975 113.575C92.5415 112.01 92.0985 111.025 89.9495 111.025C88.6965 111.025 87.5535 112.002 86.9495 113.59ZM51.3284 117.275C51.6454 119.062 52.2035 122.888 52.5685 125.775C52.9825 129.047 53.7175 131.025 54.5195 131.025C56.2545 131.025 56.8065 129.175 56.2185 125.33C55.8115 122.664 56.2834 121.63 59.0634 119.091C61.6354 116.741 62.1255 115.776 61.2095 114.86C60.2925 113.943 59.5415 114.107 57.9165 115.578C55.9405 117.366 55.7504 117.377 54.8424 115.754C54.3104 114.803 53.1724 114.025 52.3134 114.025C51.1004 114.025 50.8804 114.75 51.3284 117.275ZM66.7245 115.105C63.5475 116.956 64.7415 118.24 68.9745 117.525C71.6615 117.071 72.9745 117.217 72.9745 117.968C72.9745 119.134 72.2865 119.462 67.7535 120.453C62.0605 121.699 61.7315 128.281 67.2825 129.885C69.0375 130.393 71.2615 131.13 72.2245 131.524C73.6495 132.106 73.9755 131.708 73.9805 129.382C73.9835 127.811 74.4635 124.805 75.0475 122.702C76.8595 116.174 72.1965 111.918 66.7245 115.105ZM94.1745 116.225C92.6895 117.71 92.6035 124.464 94.0355 127.139C96.0055 130.82 103.974 131.858 103.974 128.433C103.974 127.457 103.129 127.244 100.974 127.675C96.9505 128.48 96.9535 126.113 100.98 123.822C102.65 122.872 103.974 121.281 103.974 120.226C103.974 116.124 97.0875 113.312 94.1745 116.225ZM30.3495 118.823C31.0275 119.921 29.8185 121.544 27.7565 122.304C25.7185 123.056 24.7275 121.833 25.5785 119.615C26.2105 117.967 29.4845 117.423 30.3495 118.823ZM100.474 120.025C100.474 120.85 99.4625 121.669 98.2245 121.845C96.4925 122.09 95.9745 121.671 95.9745 120.025C95.9745 118.379 96.4925 117.96 98.2245 118.205C99.4625 118.381 100.474 119.2 100.474 120.025ZM71.9745 124.466C71.9745 127.405 71.0355 128.115 68.1485 127.36C65.3185 126.62 65.3605 124.207 68.2245 123.056C71.6255 121.689 71.9745 121.82 71.9745 124.466Z" fill="#FCA52A"/>
</svg>
